<svg width="512" height="518" viewBox="0 0 512 518" fill="none" xmlns="http://www.w3.org/2000/svg">
<g clip-path="url(#clip0_214_6)" filter="url(#filter0_d_214_6)">
<path d="M62.7106 109.523L223.711 11.1233C242.919 -0.616096 267.081 -0.616086 286.289 11.1233L447.289 109.523C465.123 120.422 476 139.817 476 160.718V351.282C476 372.183 465.123 391.578 447.289 402.477L286.289 500.877C267.081 512.616 242.918 512.616 223.711 500.877L62.7106 402.477C44.8767 391.578 34 372.183 34 351.282V160.718C34 139.817 44.8767 120.422 62.7106 109.523Z" fill="#F4F4F4"/>
<path d="M62.7106 109.523L223.711 11.1233C242.919 -0.616096 267.081 -0.616086 286.289 11.1233L447.289 109.523C465.123 120.422 476 139.817 476 160.718V351.282C476 372.183 465.123 391.578 447.289 402.477L286.289 500.877C267.081 512.616 242.918 512.616 223.711 500.877L62.7106 402.477C44.8767 391.578 34 372.183 34 351.282V160.718C34 139.817 44.8767 120.422 62.7106 109.523Z" fill="url(#paint0_linear_214_6)" fill-opacity="0.3"/>
<g filter="url(#filter1_d_214_6)">
<path d="M99.9624 96.64H206.652L412.042 420H304.882L99.9624 96.64ZM271.982 162.44L307.702 96.64H410.632L321.332 240.46L271.982 162.44ZM188.322 273.36L237.202 350.91L201.012 420H98.0824L188.322 273.36Z" fill="url(#paint1_linear_214_6)" fill-opacity="0.9"/>
</g>
<path d="M95 420L188.5 269L238 349.167L200.6 420H95Z" fill="#656565"/>
</g>
<defs>
<filter id="filter0_d_214_6" x="-4" y="0" width="520" height="520" filterUnits="userSpaceOnUse" color-interpolation-filters="sRGB">
<feFlood flood-opacity="0" result="BackgroundImageFix"/>
<feColorMatrix in="SourceAlpha" type="matrix" values="0 0 0 0 0 0 0 0 0 0 0 0 0 0 0 0 0 0 127 0" result="hardAlpha"/>
<feOffset dy="4"/>
<feGaussianBlur stdDeviation="2"/>
<feComposite in2="hardAlpha" operator="out"/>
<feColorMatrix type="matrix" values="0 0 0 0 0 0 0 0 0 0 0 0 0 0 0 0 0 0 0.25 0"/>
<feBlend mode="normal" in2="BackgroundImageFix" result="effect1_dropShadow_214_6"/>
<feBlend mode="normal" in="SourceGraphic" in2="effect1_dropShadow_214_6" result="shape"/>
</filter>
<filter id="filter1_d_214_6" x="82.0824" y="80.6401" width="353.96" height="363.36" filterUnits="userSpaceOnUse" color-interpolation-filters="sRGB">
<feFlood flood-opacity="0" result="BackgroundImageFix"/>
<feColorMatrix in="SourceAlpha" type="matrix" values="0 0 0 0 0 0 0 0 0 0 0 0 0 0 0 0 0 0 127 0" result="hardAlpha"/>
<feOffset dx="4" dy="4"/>
<feGaussianBlur stdDeviation="10"/>
<feComposite in2="hardAlpha" operator="out"/>
<feColorMatrix type="matrix" values="0 0 0 0 0 0 0 0 0 0 0 0 0 0 0 0 0 0 0.5 0"/>
<feBlend mode="normal" in2="BackgroundImageFix" result="effect1_dropShadow_214_6"/>
<feBlend mode="normal" in="SourceGraphic" in2="effect1_dropShadow_214_6" result="shape"/>
</filter>
<linearGradient id="paint0_linear_214_6" x1="255" y1="-8" x2="255" y2="520" gradientUnits="userSpaceOnUse">
<stop stop-color="white" stop-opacity="0"/>
<stop offset="1" stop-color="#4C4D71"/>
</linearGradient>
<linearGradient id="paint1_linear_214_6" x1="109.198" y1="30.8837" x2="409.555" y2="483.072" gradientUnits="userSpaceOnUse">
<stop stop-opacity="0.56"/>
<stop offset="0.84375"/>
</linearGradient>
<clipPath id="clip0_214_6">
<rect width="512" height="512" fill="white"/>
</clipPath>
</defs>
</svg>
